<svg version="1.1" id="Layer_1" xmlns="http://www.w3.org/2000/svg" xmlns:xlink="http://www.w3.org/1999/xlink" x="0px" y="0px"
	 width="100%" viewBox="0 0 1024 1024" enable-background="new 0 0 1024 1024" xml:space="preserve">
<path fill="#000000" opacity="1.000000" stroke="none" 
	d="
M287.989014,605.981506 
	C267.950897,626.031494 248.172668,645.838684 228.385010,665.636353 
	C225.987885,668.034729 223.572647,670.454041 219.697067,668.618469 
	C217.046280,667.362976 215.741119,665.373840 215.530441,662.364380 
	C214.726456,650.879700 214.721451,639.382446 215.329498,627.910339 
	C215.744781,620.075378 215.470795,612.257263 215.631210,604.433655 
	C215.716858,600.257507 212.758652,599.528687 209.593857,599.462646 
	C202.930939,599.323669 196.263596,599.399719 189.598083,599.381470 
	C167.545456,599.321167 148.267532,583.597534 143.823730,561.970581 
	C143.054993,558.229370 142.617920,554.453186 142.623428,550.585083 
	C142.692657,501.926605 143.019073,453.264587 142.541824,404.610718 
	C142.273239,377.227753 166.324158,356.269348 190.775284,356.466248 
	C257.259918,357.001709 323.751678,356.649139 390.240631,356.648529 
	C392.177460,356.648529 394.114288,356.648529 396.051117,356.648529 
	C396.238800,357.057159 396.426453,357.465790 396.614136,357.874420 
	C357.014099,399.351318 317.414032,440.828217 277.531128,482.601379 
	C284.160034,489.571747 290.536163,496.342255 297.737976,502.229401 
	C301.551147,505.346466 304.938995,503.252411 307.801056,500.238831 
	C318.242126,489.244843 328.629089,478.199493 339.079926,467.214874 
	C366.181854,438.728729 392.378204,409.378296 420.498749,381.864441 
	C426.667603,375.828613 431.516022,376.461456 436.094604,383.884918 
	C440.697174,391.347198 440.758362,399.823120 440.794769,408.082977 
	C441.004059,455.573730 441.168945,503.066833 440.900818,550.556641 
	C440.758881,575.699890 426.877380,593.209290 404.005127,598.775452 
	C401.519562,599.380310 399.055756,599.377441 396.567902,599.379150 
	C365.739685,599.400574 334.910248,599.547180 304.084290,599.285522 
	C297.604706,599.230530 292.276917,600.503052 287.989014,605.981506 
	M311.293091,559.801025 
	C318.359100,552.272217 325.418701,544.737427 332.492950,537.216370 
	C339.337585,529.939514 346.142212,522.623657 353.078674,515.435242 
	C355.699707,512.718994 355.412354,509.162903 354.323364,506.689453 
	C353.043823,503.783295 349.817383,506.024658 347.724213,506.819824 
	C340.910065,509.408539 333.941437,511.654846 328.674530,517.317749 
	C326.100647,520.085144 322.430389,521.768433 318.728638,522.893555 
	C313.790375,524.394592 309.014679,526.475342 304.113678,527.886230 
	C296.372772,530.114624 287.510132,530.640869 280.833954,526.652161 
	C273.655365,522.363281 266.579498,518.411804 258.664825,515.862122 
	C257.718231,515.557190 256.799377,515.132874 255.915344,514.672363 
	C250.388870,511.793671 246.814484,504.855927 252.946686,499.237732 
	C260.143921,492.643829 262.082642,483.687134 261.366241,474.109283 
	C261.158600,471.333099 261.459259,468.649933 259.131256,466.287781 
	C252.818924,459.882812 246.817383,453.160431 239.838821,447.450134 
	C232.413452,441.374115 224.250839,440.656342 215.485886,444.289185 
	C208.093063,447.353302 203.177902,453.296356 198.208954,459.089355 
	C190.156479,468.477295 190.429962,474.124603 199.285904,482.783691 
	C219.532867,502.580566 239.857162,522.298523 260.191559,542.005676 
	C266.769348,548.380554 273.261810,554.869324 280.174225,560.867004 
	C290.918396,570.189392 300.353729,569.844666 311.293091,559.801025 
	z"/>
<path fill="#000000" opacity="1.000000" stroke="none" 
	d="
M531.100342,394.953857 
	C515.913940,396.301788 506.009979,404.482483 502.355652,418.331177 
	C498.057861,434.618408 502.688965,450.548279 514.969849,458.395752 
	C530.940063,468.600647 545.360352,464.389221 558.471619,451.871735 
	C564.456360,456.602966 570.277649,461.204956 576.032593,465.754517 
	C564.967773,483.353577 537.173096,491.921356 514.867615,485.090149 
	C489.360291,477.278351 474.477386,455.040863 475.794312,424.747620 
	C477.008514,396.817810 496.655853,377.780548 518.524780,372.598541 
	C540.731262,367.336487 566.941833,376.245026 576.003784,392.646088 
	C570.598389,396.808929 565.091553,400.995422 559.652222,405.267853 
	C557.713928,406.790344 556.573669,405.474152 555.436096,404.279602 
	C548.925964,397.443024 540.832520,394.704773 531.100342,394.953857 
	z"/>
<path fill="#000000" opacity="1.000000" stroke="none" 
	d="
M789.197510,408.856415 
	C791.048889,412.037659 792.738403,414.892914 794.794312,418.367371 
	C800.576965,408.445557 806.057556,399.020691 811.560791,389.609009 
	C814.334290,384.865845 817.156860,380.151459 819.940979,375.414398 
	C821.003601,373.606293 822.297974,372.197021 824.611389,372.201172 
	C832.437256,372.215149 840.263306,372.189575 848.088684,372.250977 
	C848.832947,372.256805 849.573242,372.765564 850.863586,373.244202 
	C845.144043,382.605835 839.635620,391.663422 834.085999,400.695740 
	C825.807678,414.169373 817.539429,427.649567 809.166931,441.064575 
	C807.765747,443.309601 807.309204,445.579315 807.323669,448.146149 
	C807.384827,458.972168 807.186707,469.802338 807.426331,480.623413 
	C807.519714,484.842072 806.441895,486.719543 801.874023,486.430878 
	C796.399597,486.084930 790.874756,486.136627 785.393555,486.427399 
	C781.110229,486.654663 779.473877,485.284393 779.584351,480.799805 
	C779.850891,469.980103 779.585388,459.148315 779.708984,448.323364 
	C779.744873,445.184357 778.927673,442.546173 777.281372,439.894745 
	C764.634766,419.527863 752.084167,399.101410 739.515808,378.686035 
	C738.417786,376.902466 737.406067,375.065796 735.934570,372.530701 
	C746.959229,371.995117 757.024841,371.688965 767.088501,372.605713 
	C769.405884,372.816803 769.961304,375.217041 770.924438,376.884247 
	C777.004211,387.408325 783.007263,397.976685 789.197510,408.856415 
	z"/>
<path fill="#000000" opacity="1.000000" stroke="none" 
	d="
M575.583557,582.143494 
	C566.861084,556.333923 576.443787,530.165405 598.918152,519.508667 
	C616.800903,511.029205 634.742126,512.323181 651.169800,523.139832 
	C666.894531,533.493591 672.515137,549.214600 671.418701,567.649658 
	C670.211670,587.945740 660.177307,602.458069 641.571045,609.941101 
	C622.707886,617.527405 604.602905,614.585205 588.584045,601.782715 
	C582.363220,596.810913 578.202332,590.143738 575.583557,582.143494 
	M625.854736,594.423401 
	C628.712952,593.592773 631.678040,593.237366 634.415955,591.866150 
	C647.818665,585.153625 653.648071,570.017883 648.911560,553.935120 
	C643.589844,535.865173 621.783997,528.095642 606.157227,538.701477 
	C594.922241,546.326660 590.570801,560.826782 595.233887,575.100586 
	C599.324829,587.622803 610.502686,594.927307 625.854736,594.423401 
	z"/>
<path fill="#000000" opacity="1.000000" stroke="none" 
	d="
M664.652100,418.000061 
	C664.652161,412.338013 664.661011,407.175903 664.650391,402.013824 
	C664.636353,395.218262 664.629761,395.210785 657.607910,395.193085 
	C651.280273,395.177155 644.949341,395.057098 638.626221,395.222656 
	C635.065918,395.315887 633.417847,394.155304 633.599426,390.366272 
	C633.830383,385.547760 633.756226,380.709412 633.663696,375.882477 
	C633.607605,372.955170 634.740417,371.679962 637.766663,371.686859 
	C664.076477,371.746704 690.386597,371.756409 716.696411,371.693451 
	C719.925537,371.685730 721.211243,373.051880 721.198303,376.153198 
	C721.177368,381.148041 721.190552,386.145996 721.348816,391.137573 
	C721.446106,394.204742 720.041504,395.234406 717.134460,395.199524 
	C709.808777,395.111633 702.472778,395.395355 695.157532,395.107971 
	C690.635315,394.930328 689.173645,396.341278 689.215210,401.037537 
	C689.447998,427.345551 689.209229,453.657806 689.457886,479.965515 
	C689.506042,485.055450 687.991943,486.832062 682.963013,486.391022 
	C678.666260,486.014252 674.296875,486.091400 669.985291,486.368195 
	C665.835327,486.634552 664.540405,485.062286 664.573364,480.944153 
	C664.740234,460.130585 664.651428,439.314911 664.652100,418.000061 
	z"/>
<path fill="#000000" opacity="1.000000" stroke="none" 
	d="
M883.793091,612.269409 
	C864.997437,612.342468 846.679749,612.257629 828.364990,612.446716 
	C824.151428,612.490173 822.534119,611.392700 822.563477,606.860229 
	C822.747986,578.386902 822.729797,549.911438 822.577515,521.437683 
	C822.554688,517.159668 823.736511,515.590942 828.207581,515.646790 
	C845.356140,515.860962 862.509949,515.814758 879.659851,515.656555 
	C883.692688,515.619324 885.353821,516.868713 885.263611,521.070374 
	C884.898376,538.089722 887.377747,534.971191 871.506409,535.242737 
	C863.848755,535.373718 856.180359,535.469727 848.530090,535.202393 
	C844.288940,535.054077 842.842590,536.663391 843.243530,540.720215 
	C843.488037,543.194092 843.546082,545.742554 843.242676,548.202515 
	C842.635071,553.128662 844.256287,555.039917 849.515076,554.766113 
	C857.818176,554.333862 866.163757,554.791321 874.485352,554.604675 
	C878.146545,554.522583 879.491089,555.782227 879.394104,559.488770 
	C878.968323,575.760803 881.790527,572.828308 866.242859,573.153748 
	C859.751282,573.289673 853.253662,573.294250 846.761780,573.181946 
	C843.589966,573.127075 842.201599,574.272156 842.358582,577.561523 
	C842.540894,581.382263 842.551880,585.229004 842.326477,589.046143 
	C842.121704,592.515869 843.424744,593.767517 846.914124,593.717712 
	C857.569031,593.565491 868.227600,593.656372 878.884705,593.665161 
	C886.176697,593.671204 886.181091,593.680481 886.248230,601.195435 
	C886.269043,603.526550 886.314148,605.859558 886.244019,608.188599 
	C886.195862,609.787659 886.554260,611.671570 883.793091,612.269409 
	z"/>
<path fill="#000000" opacity="1.000000" stroke="none" 
	d="
M746.148926,578.777832 
	C755.558167,596.007141 775.447510,599.500793 789.681213,586.396545 
	C792.748718,583.572449 794.628113,584.083740 797.138489,586.390625 
	C799.835022,588.868591 802.465149,591.436829 805.323730,593.715393 
	C808.081177,595.913330 807.551270,597.660583 805.253113,599.747375 
	C790.622192,613.032654 773.757080,617.141479 754.844543,611.521912 
	C736.339722,606.023560 726.201599,592.712646 722.834290,574.297363 
	C718.638000,551.348633 727.545776,531.135864 745.771240,520.641296 
	C763.440552,510.467102 791.086243,512.184937 805.292297,529.196411 
	C807.615845,531.978882 808.109131,533.609192 804.841309,535.878662 
	C800.770996,538.705444 797.006042,541.971863 793.261658,544.928040 
	C791.637451,544.897705 791.038330,543.794373 790.272278,542.964233 
	C782.283508,534.307434 771.206238,531.730042 760.192505,535.982361 
	C750.254761,539.819275 743.578552,549.726379 743.306030,560.890930 
	C743.159058,566.910950 743.186768,572.879944 746.148926,578.777832 
	z"/>
<path fill="#000000" opacity="1.000000" stroke="none" 
	d="
M554.205566,559.024536 
	C548.271484,575.334473 542.300842,591.218445 536.724976,607.239868 
	C535.321045,611.273804 533.310852,612.745728 529.154419,612.462769 
	C524.345459,612.135498 519.497498,612.313171 514.668152,612.385193 
	C512.366089,612.419495 511.091217,611.581238 510.263062,609.305664 
	C499.340515,579.294128 488.328674,549.315186 477.328857,519.331848 
	C476.981598,518.385193 476.559631,517.475342 477.341156,515.811218 
	C483.774261,515.811218 490.536041,515.677185 497.287659,515.879944 
	C499.838623,515.956604 499.882141,518.622131 500.480865,520.406616 
	C507.198944,540.428894 513.841858,560.476501 520.552734,580.501221 
	C521.228455,582.517700 521.513306,584.737305 523.308350,586.621582 
	C525.045288,585.573853 525.068115,583.598511 525.593567,582.028625 
	C532.402527,561.685059 539.241211,541.350281 545.827393,520.934265 
	C547.113525,516.947388 549.011292,515.201233 553.275696,515.588135 
	C558.372681,516.050598 563.550781,515.245667 569.686523,516.265564 
	C564.460144,530.676575 559.387756,544.663086 554.205566,559.024536 
	z"/>
<path fill="#000000" opacity="1.000000" stroke="none" 
	d="
M593.650146,431.999878 
	C593.650757,413.512695 593.759338,395.524414 593.572021,377.539185 
	C593.528625,373.370789 594.986694,371.847931 599.030579,372.021545 
	C603.352417,372.207062 607.698853,372.224976 612.016541,371.987579 
	C616.488647,371.741669 618.132568,373.391907 618.102478,378.027039 
	C617.931702,404.340424 618.028564,430.655487 618.033630,456.970001 
	C618.035156,465.130798 617.934937,473.293396 618.080078,481.451630 
	C618.144958,485.099335 616.773560,486.554047 613.077393,486.366333 
	C608.592163,486.138489 604.071960,486.082855 599.593872,486.371185 
	C595.111145,486.659760 593.479309,485.153931 593.554016,480.464233 
	C593.808533,464.479675 593.650757,448.488525 593.650146,431.999878 
	z"/>
<path fill="#000000" opacity="1.000000" stroke="none" 
	d="
M686.651062,574.999878 
	C686.653809,556.840576 686.789490,539.179626 686.568909,521.523132 
	C686.512024,516.968811 687.900635,515.522095 692.494263,515.546509 
	C707.285034,515.625122 707.278687,515.456177 707.277405,530.144104 
	C707.275146,554.800476 707.281311,579.456787 707.288025,604.113159 
	C707.290283,612.403625 707.295898,612.403625 698.779846,612.389771 
	C698.113464,612.388672 697.446838,612.399048 696.780762,612.384155 
	C686.670654,612.158264 686.677246,614.361877 686.659912,601.988953 
	C686.647522,593.159302 686.653503,584.329590 686.651062,574.999878 
	z"/>
</svg>

